<mxfile host="app.diagrams.net" agent="Mozilla/5.0 (Windows NT 10.0; Win64; x64) AppleWebKit/537.36 (KHTML, like Gecko) Chrome/131.0.0.0 Safari/537.36" version="25.0.3">
  <diagram name="Trang-1" id="4CsZ3OTsV20PnfhEdF_V">
    <mxGraphModel dx="1050" dy="653" grid="1" gridSize="10" guides="1" tooltips="1" connect="1" arrows="1" fold="1" page="1" pageScale="1" pageWidth="827" pageHeight="1169" math="0" shadow="0">
      <root>
        <mxCell id="0" />
        <mxCell id="1" parent="0" />
        <mxCell id="0p0D-_u-PC4lAhMAmCj8-5" style="edgeStyle=orthogonalEdgeStyle;rounded=0;orthogonalLoop=1;jettySize=auto;html=1;entryX=0.5;entryY=0;entryDx=0;entryDy=0;" edge="1" parent="1" source="0p0D-_u-PC4lAhMAmCj8-1" target="0p0D-_u-PC4lAhMAmCj8-2">
          <mxGeometry relative="1" as="geometry" />
        </mxCell>
        <mxCell id="0p0D-_u-PC4lAhMAmCj8-1" value="Start" style="strokeWidth=2;html=1;shape=mxgraph.flowchart.start_1;whiteSpace=wrap;" vertex="1" parent="1">
          <mxGeometry x="70" y="20" width="100" height="60" as="geometry" />
        </mxCell>
        <mxCell id="0p0D-_u-PC4lAhMAmCj8-6" style="edgeStyle=orthogonalEdgeStyle;rounded=0;orthogonalLoop=1;jettySize=auto;html=1;" edge="1" parent="1" source="0p0D-_u-PC4lAhMAmCj8-2" target="0p0D-_u-PC4lAhMAmCj8-3">
          <mxGeometry relative="1" as="geometry" />
        </mxCell>
        <mxCell id="0p0D-_u-PC4lAhMAmCj8-2" value="n, i=1" style="shape=parallelogram;html=1;strokeWidth=2;perimeter=parallelogramPerimeter;whiteSpace=wrap;rounded=1;arcSize=12;size=0.23;" vertex="1" parent="1">
          <mxGeometry x="70" y="130" width="100" height="60" as="geometry" />
        </mxCell>
        <mxCell id="0p0D-_u-PC4lAhMAmCj8-3" value="i &amp;gt; n" style="strokeWidth=2;html=1;shape=mxgraph.flowchart.decision;whiteSpace=wrap;" vertex="1" parent="1">
          <mxGeometry x="70" y="240" width="100" height="100" as="geometry" />
        </mxCell>
        <mxCell id="0p0D-_u-PC4lAhMAmCj8-4" value="End" style="strokeWidth=2;html=1;shape=mxgraph.flowchart.start_1;whiteSpace=wrap;" vertex="1" parent="1">
          <mxGeometry x="630" y="320" width="100" height="60" as="geometry" />
        </mxCell>
        <mxCell id="0p0D-_u-PC4lAhMAmCj8-7" style="edgeStyle=orthogonalEdgeStyle;rounded=0;orthogonalLoop=1;jettySize=auto;html=1;entryX=0.5;entryY=0;entryDx=0;entryDy=0;entryPerimeter=0;" edge="1" parent="1" source="0p0D-_u-PC4lAhMAmCj8-3" target="0p0D-_u-PC4lAhMAmCj8-4">
          <mxGeometry relative="1" as="geometry" />
        </mxCell>
        <mxCell id="0p0D-_u-PC4lAhMAmCj8-9" value="n % i == 0" style="strokeWidth=2;html=1;shape=mxgraph.flowchart.decision;whiteSpace=wrap;" vertex="1" parent="1">
          <mxGeometry x="150" y="370" width="100" height="100" as="geometry" />
        </mxCell>
        <mxCell id="0p0D-_u-PC4lAhMAmCj8-15" style="edgeStyle=orthogonalEdgeStyle;rounded=0;orthogonalLoop=1;jettySize=auto;html=1;entryX=0.5;entryY=0;entryDx=0;entryDy=0;" edge="1" parent="1" source="0p0D-_u-PC4lAhMAmCj8-10" target="0p0D-_u-PC4lAhMAmCj8-12">
          <mxGeometry relative="1" as="geometry" />
        </mxCell>
        <mxCell id="0p0D-_u-PC4lAhMAmCj8-10" value="i" style="strokeWidth=2;html=1;shape=mxgraph.flowchart.display;whiteSpace=wrap;" vertex="1" parent="1">
          <mxGeometry x="300" y="440" width="100" height="60" as="geometry" />
        </mxCell>
        <mxCell id="0p0D-_u-PC4lAhMAmCj8-11" style="edgeStyle=orthogonalEdgeStyle;rounded=0;orthogonalLoop=1;jettySize=auto;html=1;entryX=0.5;entryY=0;entryDx=0;entryDy=0;entryPerimeter=0;" edge="1" parent="1" source="0p0D-_u-PC4lAhMAmCj8-9" target="0p0D-_u-PC4lAhMAmCj8-10">
          <mxGeometry relative="1" as="geometry" />
        </mxCell>
        <mxCell id="0p0D-_u-PC4lAhMAmCj8-12" value="i++" style="rounded=1;whiteSpace=wrap;html=1;absoluteArcSize=1;arcSize=14;strokeWidth=2;" vertex="1" parent="1">
          <mxGeometry x="280" y="560" width="140" height="50" as="geometry" />
        </mxCell>
        <mxCell id="0p0D-_u-PC4lAhMAmCj8-16" style="edgeStyle=orthogonalEdgeStyle;rounded=0;orthogonalLoop=1;jettySize=auto;html=1;entryX=0;entryY=0.5;entryDx=0;entryDy=0;entryPerimeter=0;" edge="1" parent="1" source="0p0D-_u-PC4lAhMAmCj8-3" target="0p0D-_u-PC4lAhMAmCj8-9">
          <mxGeometry relative="1" as="geometry" />
        </mxCell>
        <mxCell id="0p0D-_u-PC4lAhMAmCj8-17" style="edgeStyle=orthogonalEdgeStyle;rounded=0;orthogonalLoop=1;jettySize=auto;html=1;entryX=0;entryY=0.5;entryDx=0;entryDy=0;entryPerimeter=0;" edge="1" parent="1" source="0p0D-_u-PC4lAhMAmCj8-12" target="0p0D-_u-PC4lAhMAmCj8-3">
          <mxGeometry relative="1" as="geometry" />
        </mxCell>
        <mxCell id="0p0D-_u-PC4lAhMAmCj8-18" value="True" style="text;html=1;align=center;verticalAlign=middle;resizable=0;points=[];autosize=1;strokeColor=none;fillColor=none;" vertex="1" parent="1">
          <mxGeometry x="215" y="258" width="50" height="30" as="geometry" />
        </mxCell>
        <mxCell id="0p0D-_u-PC4lAhMAmCj8-19" value="False" style="text;html=1;align=center;verticalAlign=middle;resizable=0;points=[];autosize=1;strokeColor=none;fillColor=none;" vertex="1" parent="1">
          <mxGeometry x="120" y="350" width="50" height="30" as="geometry" />
        </mxCell>
        <mxCell id="0p0D-_u-PC4lAhMAmCj8-20" value="True" style="text;html=1;align=center;verticalAlign=middle;resizable=0;points=[];autosize=1;strokeColor=none;fillColor=none;" vertex="1" parent="1">
          <mxGeometry x="275" y="390" width="50" height="30" as="geometry" />
        </mxCell>
      </root>
    </mxGraphModel>
  </diagram>
</mxfile>
